<svg width="286" height="161" viewBox="0 0 286 161" fill="none" xmlns="http://www.w3.org/2000/svg">
<path fill-rule="evenodd" clip-rule="evenodd" d="M138 5C138 2.23858 140.239 0 143 0C145.761 0 148 2.23858 148 5V162C148 164.761 145.761 167 143 167C140.239 167 138 164.761 138 162V5ZM46 46.4063C46 43.6448 48.2386 41.4062 51 41.4062C53.7614 41.4062 56 43.6448 56 46.4062V162.001C56 164.763 53.7614 167.001 51 167.001C48.2386 167.001 46 164.763 46 162.001V46.4063ZM0 80.9102C0 78.1487 2.23858 75.9102 5 75.9102C7.76142 75.9102 10 78.1487 10 80.9102V162.001C10 164.762 7.76142 167.001 5 167.001C2.23858 167.001 0 164.762 0 162.001V80.9102ZM97 95.2305C94.2386 95.2305 92 97.469 92 100.23V161.999C92 164.76 94.2386 166.999 97 166.999C99.7614 166.999 102 164.76 102 161.999V100.23C102 97.469 99.7614 95.2305 97 95.2305ZM189 75.9102C186.239 75.9102 184 78.1487 184 80.9102V162.001C184 164.762 186.239 167.001 189 167.001C191.761 167.001 194 164.762 194 162.001V80.9102C194 78.1487 191.761 75.9102 189 75.9102ZM230 35.3633C230 32.6019 232.239 30.3633 235 30.3633C237.761 30.3633 240 32.6019 240 35.3633V162C240 164.761 237.761 167 235 167C232.239 167 230 164.761 230 162V35.3633ZM281 52.4453C278.239 52.4453 276 54.6839 276 57.4453V161.999C276 164.76 278.239 166.999 281 166.999C283.761 166.999 286 164.76 286 161.999V57.4453C286 54.6839 283.761 52.4453 281 52.4453Z" fill="#F4F4F4"/>
</svg>
