<?xml version="1.0" encoding="UTF-8"?><svg id="Layer_1" xmlns="http://www.w3.org/2000/svg" xmlns:xlink="http://www.w3.org/1999/xlink" viewBox="0 0 80 80"><defs><linearGradient id="linear-gradient" x1="15.09" y1="40.61" x2="64.29" y2="40.61" gradientTransform="translate(0 80) scale(1 -1)" gradientUnits="userSpaceOnUse"><stop offset="0" stop-color="#ff5c35"/><stop offset=".64" stop-color="#ffa766"/></linearGradient><linearGradient id="linear-gradient-2" x1="15.09" y1="62.98" x2="64.29" y2="62.98" gradientTransform="translate(0 80) scale(1 -1)" gradientUnits="userSpaceOnUse"><stop offset="0" stop-color="#ff5c35"/><stop offset="1" stop-color="#ffa766"/></linearGradient></defs><rect x="12.85" y="4.72" width="53.67" height="53.67" fill="none"/><path d="m7.97,63.82c.3-.32.67-.57,1.07-.74.42-.17.87-.26,1.33-.26.32,0,.63.05.93.15.31.1.6.25.87.43.3.2.57.44.82.7l1.27-1.4c-.29-.37-.64-.69-1.03-.94-.42-.27-.87-.49-1.35-.64-.49-.15-1-.23-1.52-.23-.73,0-1.46.13-2.13.41-.64.27-1.23.67-1.72,1.17-.49.5-.88,1.1-1.15,1.75-.28.69-.42,1.42-.41,2.16,0,.76.12,1.52.39,2.23.24.65.62,1.25,1.1,1.76.47.49,1.04.88,1.67,1.14.68.27,1.4.41,2.13.4.51,0,1.02-.07,1.51-.19.48-.12.94-.29,1.37-.53.37-.19.7-.45.98-.75l-.98-1.57c-.22.22-.47.42-.74.59-.27.17-.57.3-.88.39-.32.09-.65.14-.98.14-.49,0-.98-.08-1.43-.25-.42-.16-.8-.41-1.12-.73-.32-.32-.56-.71-.72-1.13-.17-.47-.26-.97-.25-1.47,0-.5.08-.99.26-1.45.16-.42.41-.8.71-1.13Z" fill="#213343"/><path d="m21.43,66.49l-3.35-5.46h-1.89v10.73h1.98v-4.03c0-.99-.02-1.85-.07-2.57-.02-.27-.04-.53-.07-.79l2.83,4.48h1.01l2.92-4.51c-.03.3-.06.6-.08.9-.04.74-.07,1.56-.07,2.48v4.03h1.98v-10.73h-1.8l-3.41,5.47Z" fill="#213343"/><path d="m35.97,66.52c-.35-.28-.74-.51-1.15-.68-.49-.2-1-.35-1.52-.45-.31-.06-.61-.15-.91-.25-.23-.07-.45-.18-.65-.32-.16-.11-.29-.26-.39-.42-.09-.17-.14-.35-.14-.54,0-.25.08-.49.23-.68.17-.2.39-.35.64-.44.61-.21,1.28-.2,1.89,0,.3.11.58.27.83.48.27.23.5.49.69.79l1.32-1.3c-.23-.39-.54-.74-.9-1.02-.38-.29-.8-.5-1.26-.64-.53-.15-1.07-.22-1.62-.21-.51,0-1.01.07-1.49.23-.44.14-.85.36-1.21.64-.34.27-.62.6-.82.98-.2.38-.3.81-.3,1.24,0,.41.06.82.2,1.2.14.36.35.68.63.95.31.29.66.53,1.05.7.47.21.97.36,1.48.46.3.06.57.13.81.2.23.06.45.15.66.26.18.09.34.2.49.33.26.22.4.54.4.88,0,.24-.09.47-.25.65-.18.2-.42.36-.67.44-.3.11-.63.17-.95.16-.57,0-1.13-.13-1.63-.4-.48-.27-.97-.75-1.47-1.44l-1.3,1.48c.31.44.69.82,1.12,1.15.42.32.9.56,1.41.71.56.16,1.14.24,1.72.24.81,0,1.51-.14,2.12-.41.57-.25,1.06-.65,1.4-1.17.33-.51.5-1.11.5-1.82,0-.38-.08-.77-.25-1.11-.17-.34-.42-.65-.72-.89Z" fill="#213343"/><polygon points="50.52 65.47 45.63 65.47 45.63 61.02 43.63 61.02 43.63 71.76 45.63 71.76 45.63 67.34 50.52 67.34 50.52 71.76 52.51 71.76 52.51 61.02 50.52 61.02 50.52 65.47" fill="#213343"/><path d="m60.46,68.52c0,.24-.04.49-.13.71-.09.21-.22.41-.38.57-.17.16-.36.29-.58.37-.23.09-.48.13-.73.13-.32,0-.64-.08-.92-.25-.26-.17-.46-.41-.58-.7-.14-.35-.21-.72-.2-1.1v-4.59h-1.89v4.99c0,.67.11,1.26.34,1.74.21.46.55.85.98,1.12.43.26.94.39,1.52.39.44,0,.87-.09,1.27-.27.39-.17.74-.42,1.03-.72.11-.11.21-.23.29-.36l.02,1.19h1.84v-8.09h-1.89v4.85Z" fill="#213343"/><path d="m70.88,64.05c-.56-.36-1.2-.54-1.92-.54-.33,0-.66.05-.97.16-.31.1-.6.25-.87.43-.25.17-.48.37-.67.6h0s0-4.29,0-4.29h-1.89v11.32h1.82l.02-.97c.19.21.4.4.64.56.29.19.6.34.93.44.34.11.69.16,1.05.16.67,0,1.32-.18,1.88-.54.56-.37,1.02-.89,1.31-1.5.32-.63.48-1.36.48-2.18,0-.81-.16-1.53-.48-2.16-.3-.61-.75-1.12-1.32-1.49Zm-.31,4.98h0c-.18.37-.46.68-.8.9-.34.22-.74.34-1.15.33-.41,0-.82-.11-1.17-.33-.34-.22-.62-.54-.8-.9-.2-.41-.3-.87-.29-1.33,0-.45.09-.9.29-1.3.18-.36.46-.67.8-.89.72-.43,1.61-.43,2.33,0,.34.22.61.53.79.89.38.84.38,1.8,0,2.63Z" fill="#213343"/><path d="m74.92,61.33c-.08-.19-.19-.35-.34-.5-.3-.29-.7-.46-1.11-.46-.21,0-.42.04-.62.12-.19.08-.36.19-.51.34-.51.5-.62,1.28-.25,1.9.29.48.82.78,1.38.77.21,0,.42-.04.61-.12.19-.08.36-.19.5-.34.14-.14.26-.31.34-.5.08-.19.13-.4.12-.61,0-.21-.04-.42-.12-.61Zm-.46,1.19c-.1.17-.24.31-.42.41-.18.1-.38.15-.58.15-.42,0-.8-.21-1.02-.56-.22-.35-.22-.8,0-1.15.1-.17.25-.32.43-.42.18-.1.39-.16.59-.15.2,0,.4.05.58.15.17.1.31.24.42.42.21.36.21.8,0,1.15Z" fill="#213343"/><path d="m73.99,61.97c.1-.09.16-.23.15-.36,0-.13-.05-.26-.14-.35-.1-.09-.24-.14-.38-.14h-.76v1.6h.44v-.61h.17l.24.61h.47l-.29-.67s.08-.05.12-.08Zm-.34-.2c-.05.03-.11.05-.17.05h-.19v-.34h.21c.06,0,.12.01.16.04.04.03.06.08.06.12,0,.05-.02.09-.06.12Z" fill="#213343"/><path d="m55.35,48.33h-31.31c-4.94-.04-8.91-4.08-8.87-9.02.04-4.88,3.99-8.83,8.87-8.87h31.31c4.94-.04,8.98,3.93,9.02,8.87.04,4.94-3.93,8.98-8.87,9.02-.05,0-.1,0-.15,0Z" fill="url(#linear-gradient)"/><circle cx="55.35" cy="39.39" r="8.95" fill="#ff5c35"/><path d="m55.35,25.97h-8.95c-4.94.04-8.98-3.93-9.02-8.87-.04-4.94,3.93-8.98,8.87-9.02.05,0,.1,0,.15,0h8.95c4.94.04,8.91,4.08,8.87,9.02-.04,4.88-3.99,8.83-8.87,8.87ZM24.04,8.08c-4.94,0-8.95,4-8.95,8.95,0,4.94,4,8.95,8.95,8.95s8.95-4,8.95-8.95h0c0-4.94-4.01-8.95-8.95-8.95Z" fill="url(#linear-gradient-2)"/></svg>