<svg width="149" height="110" viewBox="0 0 149 110" fill="none" xmlns="http://www.w3.org/2000/svg">
<path d="M0.851562 64.2603H20.0649V83.9429H0.851562L6.33924 74.3232L0.851562 64.2603Z" fill="#333333"/>
<path d="M4.0625 66.085H20.0693V82.1048H4.0625L8.6247 74.323L4.0625 66.085Z" stroke="#EFEFEF"/>
<path d="M148.147 64.2603H128.934V83.9429H148.147L142.659 74.3232L148.147 64.2603Z" fill="#333333"/>
<path d="M144.94 66.085H128.934V82.1048H144.94L140.378 74.323L144.94 66.085Z" stroke="#EFEFEF"/>
<path d="M74.1594 0.220215L15.5547 29.4965V80.7235L74.1594 110L132.751 80.7235V29.4965L74.1594 0.220215Z" fill="#FF402C"/>
<path d="M73.9133 4.66553L20.1445 31.5695V78.6514L73.9133 105.555L127.695 78.6514V31.5695L73.9133 4.66553Z" stroke="#FAFAFA"/>
<path d="M74.0421 54.1975C81.6226 54.1975 87.7678 48.0523 87.7678 40.4718C87.7678 32.8913 81.6226 26.7461 74.0421 26.7461C66.4616 26.7461 60.3164 32.8913 60.3164 40.4718C60.3164 48.0523 66.4616 54.1975 74.0421 54.1975Z" fill="#EFEFEF"/>
<path d="M74.0411 49.6217C79.0948 49.6217 83.1916 45.5249 83.1916 40.4713C83.1916 35.4176 79.0948 31.3208 74.0411 31.3208C68.9874 31.3208 64.8906 35.4176 64.8906 40.4713C64.8906 45.5249 68.9874 49.6217 74.0411 49.6217Z" fill="#FF402C"/>
<path d="M52.5211 54.3673H47.0986V32.9901H40.1641V28.4019H59.4556V32.9901H52.5211V54.3673ZM97.5565 40.6286H99.3553C101.037 40.6286 102.288 40.2896 103.135 39.6379C103.957 38.9601 104.374 37.9825 104.374 36.7051C104.374 35.4276 104.022 34.4631 103.331 33.8374C102.627 33.2248 101.532 32.925 100.046 32.925H97.5565V40.6155V40.6286ZM109.888 36.5226C109.888 39.312 109.027 41.4497 107.281 42.9357C105.56 44.4087 103.096 45.1516 99.9028 45.1516H97.5565V54.3803H92.0819V28.4279H100.32C103.448 28.4279 105.821 29.1057 107.437 30.4614C109.079 31.817 109.888 33.8374 109.888 36.5226Z" fill="#EFEFEF"/>
<path d="M74.5628 36.5609L60.9414 24.6992H86.1508L74.5628 36.5609Z" fill="#FF402C"/>
<path d="M70.0879 18.521H77.961C78.3129 18.521 78.5997 18.7817 78.6127 19.1467C78.6127 20.776 78.6127 25.2079 77.8958 27.4368C77.205 29.1835 76.2013 30.7868 74.9239 32.1685V33.4198C74.9239 33.8239 75.1194 34.215 75.4453 34.4626L76.4489 35.2056C76.4489 35.2056 76.5141 35.336 76.475 35.3881C76.4489 35.4272 76.4098 35.4402 76.3707 35.4402H71.6651C71.5869 35.4402 71.5348 35.3881 71.5348 35.3099C71.5348 35.2708 71.5478 35.2317 71.5869 35.2056L72.5776 34.4626C72.9035 34.215 73.099 33.8239 73.099 33.4198V32.0903C71.9258 30.7086 71.0004 29.1314 70.3617 27.4368C69.6447 25.2209 69.4883 20.8282 69.4492 19.1727C69.4492 18.8078 69.736 18.521 70.101 18.521H70.0879Z" fill="white"/>
<path d="M70.3555 19.4341H66.7188C66.7188 19.4341 67.0577 23.3967 68.5436 25.8342C69.9253 28.1283 73.1058 30.4094 73.1058 30.4094M77.7071 19.4341H81.3439C81.3439 19.4341 81.005 23.3967 79.532 25.8342C78.1373 28.1283 74.9698 30.4094 74.9698 30.4094" stroke="white"/>
<path d="M50.557 79.6029L51.0523 81.128H52.6686L51.3651 82.0795L51.8604 83.6176L50.557 82.6661L49.2535 83.6176L49.7488 82.0795L48.4453 81.128H50.0486L50.557 79.5898V79.6029ZM97.2869 79.6159L96.7916 81.141H95.1753L96.4788 82.0925L95.9834 83.6307L97.2869 82.6791L98.5904 83.6307L98.0951 82.0925L99.3986 81.141H97.7822L97.2869 79.6029V79.6159ZM60.5677 83.3308L61.3238 85.638H63.7482L61.793 87.0588L62.536 89.366L60.5808 87.9322L58.6125 89.366L59.3555 87.0588L57.4003 85.625H59.8247L60.5677 83.3308ZM87.2762 83.3308L86.5201 85.638H84.0956L86.0509 87.0588L85.3079 89.366L87.2631 87.9322L89.2314 89.366L88.4884 87.0588L90.4436 85.625H88.0191L87.2762 83.3308ZM73.9154 85.5468L75.1668 89.3921H79.2076L75.9489 91.7774L77.1872 95.6227L73.9285 93.2373L70.6567 95.6227L71.895 91.7774L68.6363 89.3921H72.6771L73.9154 85.5468Z" fill="white"/>
<path d="M11.3984 52.8027H137.028V74.5318H11.3984V52.8027Z" fill="#333333" stroke="#EFEFEF"/>
<path d="M14.25 55.2793H134.497V71.625H14.25V55.2793Z" stroke="#EFEFEF"/>
<path d="M36.5536 63.4396C36.5536 64.717 36.2017 65.6816 35.4978 66.3594C34.7939 67.0242 33.7772 67.3631 32.4476 67.3631H30.2969V59.6725H32.6692C33.8945 59.6725 34.846 59.9984 35.5369 60.6632C36.2147 61.3149 36.5536 62.2404 36.5536 63.4396ZM35.2241 63.4787C35.2241 61.6538 34.3637 60.7153 32.6431 60.7153H31.5482V66.3073H32.4476C34.2986 66.3073 35.2241 65.3688 35.2241 63.4787ZM43.9704 67.3631H39.6168V59.6725H43.9704V60.7284H40.8681V62.827H43.7749V63.8698H40.8681V66.2942H43.9704V67.3631ZM51.4785 65.2645C51.4785 65.9553 51.2178 66.5028 50.7355 66.8808C50.2402 67.2719 49.5624 67.4674 48.6891 67.4674C47.8157 67.4674 47.0988 67.337 46.5513 67.0763V65.8771C47.2422 66.19 47.9982 66.3724 48.7673 66.3985C49.2626 66.3985 49.6406 66.3073 49.8752 66.1248C50.1099 65.9423 50.2402 65.6555 50.2272 65.3557C50.2272 65.069 50.1229 64.8343 49.9013 64.6258C49.4972 64.326 49.041 64.0913 48.5587 63.9219C47.9852 63.7264 47.4768 63.3875 47.0727 62.9443C46.786 62.5663 46.6296 62.097 46.6426 61.6278C46.6426 60.976 46.8642 60.4807 47.3204 60.1157C47.7766 59.7377 48.3893 59.5552 49.1583 59.5552C49.9274 59.5552 50.6313 59.7247 51.3612 60.0375L50.9702 61.0803C50.2793 60.7805 49.6667 60.6371 49.1322 60.6371C48.7151 60.6371 48.4153 60.7284 48.2068 60.8978C47.9982 61.0673 47.8679 61.328 47.8809 61.6017C47.8809 61.8102 47.933 61.9797 48.0112 62.1231C48.1155 62.2795 48.2589 62.4099 48.4284 62.5141C48.6239 62.6445 48.9628 62.8139 49.4711 63.0225C50.0316 63.2571 50.4488 63.4787 50.7095 63.6742C50.9702 63.8828 51.1657 64.1174 51.296 64.3651C51.4264 64.6258 51.4785 64.9256 51.4785 65.2775V65.2645ZM54.3723 67.3501V59.6595H55.6236V67.3501H54.3723ZM62.2192 63.1659H65.0478V67.0372C64.1745 67.324 63.249 67.4674 62.3235 67.4543C61.1634 67.4543 60.264 67.1154 59.6383 66.4246C58.9605 65.6034 58.6216 64.5606 58.6868 63.5048C58.6868 62.2665 59.0387 61.2889 59.7557 60.598C60.4726 59.8941 61.4502 59.5552 62.7015 59.5552C63.4967 59.5552 64.2657 59.6986 64.9826 60.0114L64.5394 61.0542C63.9529 60.7805 63.3142 60.6241 62.6624 60.6241C61.8412 60.6241 61.2025 60.8848 60.7072 61.4062C60.2379 61.9145 60.0033 62.6184 60.0033 63.5178C60.0033 64.4172 60.2119 65.1732 60.6551 65.6686C61.0722 66.1509 61.6978 66.3985 62.506 66.3985C62.9101 66.3985 63.3402 66.3464 63.8095 66.2421V64.2608H62.2192V63.1789V63.1659ZM74.7197 67.337H73.1685L69.3884 61.2106H69.3493L69.3754 61.5495C69.4145 62.2013 69.4406 62.8009 69.4406 63.3353V67.337H68.3065V59.6465H69.8316L73.6117 65.7468H73.6378C73.5856 65.0559 73.5596 64.3651 73.5596 63.6742V59.6334H74.7197V67.337ZM83.5964 67.337H82.3451V59.6465H86.6987V60.7023H83.5964V63.1137H86.5032V64.1826H83.5964V67.337ZM89.4882 67.337V59.6465H90.7525V67.337H89.4882ZM95.4451 63.218H96.3184C96.905 63.218 97.3352 63.1137 97.5958 62.8921C97.8565 62.6836 97.9869 62.3577 97.9869 61.9276C97.9869 61.4974 97.8565 61.1846 97.5567 60.989C97.1657 60.7805 96.7225 60.6762 96.2793 60.7023H95.4451V63.218ZM95.4451 64.2608V67.337H94.1937V59.6465H96.3575C97.3612 59.6465 98.0912 59.8289 98.5735 60.1939C99.0427 60.5719 99.2904 61.1324 99.2904 61.8885C99.2904 62.84 98.782 63.5308 97.7914 63.9349L99.9682 67.337H98.5344L96.6834 64.2608H95.4451ZM105.821 67.337L103.579 60.9108H103.54C103.605 61.8624 103.631 62.7618 103.631 63.596V67.337H102.484V59.6465H104.257L106.394 65.7728H106.433L108.636 59.6465H110.409V67.337H109.197V63.5439C109.197 62.6705 109.223 61.8102 109.275 60.9369H109.236L106.929 67.3501H105.821V67.337ZM118.282 65.2254C118.282 65.9162 118.021 66.4637 117.539 66.8417C117.044 67.2327 116.366 67.4283 115.493 67.4283C114.619 67.4283 113.902 67.2979 113.355 67.0372V65.838C114.046 66.1509 114.802 66.3333 115.571 66.3594C116.066 66.3594 116.431 66.2682 116.666 66.0857C116.9 65.9032 117.044 65.6164 117.031 65.3166C117.031 65.0299 116.927 64.7952 116.705 64.5867C116.288 64.2869 115.832 64.0392 115.349 63.8828C114.789 63.6873 114.28 63.3484 113.876 62.9052C113.577 62.5272 113.42 62.0709 113.433 61.5887C113.433 60.9369 113.668 60.4416 114.124 60.0766C114.58 59.6986 115.193 59.5161 115.949 59.5161C116.705 59.5161 117.435 59.6856 118.165 59.9984L117.774 61.0412C117.083 60.7414 116.47 60.598 115.923 60.598C115.532 60.598 115.219 60.6892 115.01 60.8587C114.802 61.0282 114.672 61.2889 114.685 61.5626C114.685 61.7711 114.724 61.9406 114.815 62.084C114.919 62.2404 115.063 62.3707 115.232 62.475C115.428 62.6054 115.766 62.7748 116.275 62.9834C116.835 63.218 117.252 63.4396 117.513 63.6351C117.774 63.8437 117.969 64.0783 118.1 64.326C118.217 64.5867 118.282 64.8865 118.282 65.2384V65.2254Z" fill="#EFEFEF"/>
<mask id="mask0_5812_21099" style="mask-type:luminance" maskUnits="userSpaceOnUse" x="67" y="9" width="14" height="9">
<path d="M80.9991 9.52734H67.2734V17.1527H80.9991V9.52734Z" fill="white"/>
</mask>
<g mask="url(#mask0_5812_21099)">
<path d="M67.8146 13.9986L69.7698 17.6744H78.3989L80.3541 13.9986L79.3374 15.0283C79.168 15.2108 78.9464 15.3412 78.7117 15.4324C78.073 15.667 77.669 15.3542 77.669 14.5982L78.0079 12.5256L77.0694 13.9073C76.939 14.1159 76.7696 14.3114 76.574 14.4548C76.0396 14.8459 75.6095 14.8458 75.2184 14.4287C75.075 14.2593 74.9707 14.0638 74.9186 13.8552L74.0844 10.9745L73.3414 13.8031C73.2892 13.9986 73.211 14.1811 73.0807 14.3245C72.6636 14.8719 72.0379 14.911 71.5817 14.3505C71.4774 14.2202 71.3862 14.0898 71.2949 13.9334L70.4346 12.5256L70.6562 14.4809C70.6562 14.6503 70.6301 14.8328 70.565 15.0023C70.3434 15.5628 69.8611 15.7453 69.2224 15.3151C69.1181 15.2499 69.0268 15.1717 68.9356 15.0935L67.8146 13.9986ZM74.3972 10.414C74.4624 10.2445 74.3972 10.0621 74.2278 9.98385C74.0583 9.91867 73.8758 9.98385 73.7976 10.1533C73.7846 10.1924 73.7715 10.2315 73.7715 10.2576C73.7715 10.4401 73.9019 10.5965 74.0844 10.5965C74.2278 10.5965 74.3451 10.5183 74.3972 10.401V10.414ZM78.5032 12.2128C78.6466 12.1085 78.6726 11.9 78.5684 11.7566C78.4641 11.6132 78.2555 11.5871 78.1121 11.6914C78.0861 11.7044 78.06 11.7305 78.047 11.7566C77.9427 11.9 77.9688 12.1085 78.1121 12.2128C78.2295 12.3041 78.3859 12.3041 78.5032 12.2128ZM70.4346 12.2128C70.578 12.1085 70.6041 11.9 70.4998 11.7566C70.3955 11.6132 70.187 11.5871 70.0436 11.6914C70.0175 11.7044 69.9914 11.7305 69.9784 11.7566C69.8741 11.9 69.9002 12.1085 70.0436 12.2128C70.1609 12.3041 70.3173 12.3041 70.4346 12.2128ZM67.8146 13.79C67.971 13.6857 68.0101 13.4902 67.9059 13.3338C67.8016 13.1774 67.6061 13.1383 67.4496 13.2426C67.4105 13.2686 67.3714 13.3077 67.3454 13.3468C67.2541 13.5033 67.2932 13.6988 67.4496 13.79C67.5539 13.8552 67.6973 13.8552 67.8016 13.79H67.8146ZM80.9798 13.5815C81.045 13.412 80.9798 13.2295 80.8104 13.1513C80.6409 13.0861 80.4584 13.1513 80.3802 13.3208C80.3541 13.3729 80.3541 13.412 80.3541 13.4642C80.3541 13.6466 80.5236 13.777 80.7061 13.764C80.8234 13.764 80.9407 13.6727 80.9798 13.5684V13.5815Z" fill="white"/>
</g>
</svg>
