<svg width="80" height="80" viewBox="0 0 80 80" fill="none" xmlns="http://www.w3.org/2000/svg">
<g clip-path="url(#clip0_10220_28178)">
<path d="M40 71C57.1208 71 71 57.1208 71 40C71 22.8792 57.1208 9 40 9C22.8792 9 9 22.8792 9 40C9 57.1208 22.8792 71 40 71Z" fill="black"/>
<path d="M53.5472 20.4766C50.3997 20.587 47.6498 22.3209 45.6067 24.7284C43.3427 27.3569 41.8297 30.4823 40.7474 33.6739C38.8037 32.0836 37.3017 30.0184 34.1874 29.1239C31.7798 28.4281 29.2508 28.7153 26.9206 30.4491C25.8162 31.2774 25.0542 32.5143 24.7008 33.685C23.762 36.722 25.6836 39.4388 26.5561 40.4107L28.4556 42.4538C28.8532 42.8513 29.792 43.9005 29.3281 45.3914C28.8311 47.0149 26.8653 48.0751 24.8554 47.4566C23.9608 47.1805 22.6687 46.5068 22.9558 45.5681C23.0773 45.1816 23.3534 44.8944 23.497 44.5631C23.6295 44.276 23.6958 44.0662 23.7399 43.9336C24.1044 42.7299 23.6074 41.1727 22.3153 40.7751C21.1115 40.4107 19.8856 40.6978 19.4108 42.2439C18.8696 43.9999 19.7089 47.1805 24.2038 48.572C29.4717 50.1955 33.9334 47.3241 34.5629 43.5802C34.9605 41.2389 33.9003 39.494 31.9676 37.2521L30.3883 35.5072C29.4275 34.5464 29.1072 32.9229 30.0901 31.675C30.9295 30.6148 32.1112 30.162 34.0659 30.6921C36.9152 31.4652 38.1853 33.442 40.2946 35.0323C39.4222 37.9037 38.8479 40.7751 38.3288 43.3594L38.0086 45.281C36.4955 53.2215 35.3359 57.5728 32.3431 60.0797C31.7357 60.5104 30.8742 61.1509 29.5711 61.1951C28.8864 61.2172 28.6655 60.7423 28.6544 60.5435C28.6434 60.0687 29.041 59.8478 29.3171 59.6269C29.7146 59.406 30.3221 59.0416 30.2889 57.882C30.2447 56.5015 29.1072 55.3198 27.4617 55.375C26.2248 55.4192 24.3473 56.5788 24.4247 58.6992C24.502 60.8859 26.5451 62.5314 29.6263 62.432C31.2718 62.3768 34.9494 61.7031 38.5718 57.3961C42.7905 52.4595 43.9722 46.794 44.8557 42.6525L45.8497 37.1859C46.4019 37.2521 46.9872 37.2963 47.6277 37.3073C52.8846 37.4178 55.513 34.701 55.5461 32.7242C55.5682 31.5314 54.762 30.3497 53.6245 30.3718C52.8073 30.3939 51.7912 30.9351 51.5483 32.0615C51.3053 33.1659 53.2159 34.1599 51.725 35.1317C50.6648 35.8164 48.7652 36.3024 46.0816 35.9158L46.5675 33.2211C47.5615 28.1189 48.7873 21.835 53.4368 21.6803C53.7791 21.6583 55.016 21.6914 55.0492 22.5197C55.0492 22.7958 54.9939 22.862 54.6737 23.4915C54.3424 23.9775 54.2209 24.3971 54.243 24.872C54.2871 26.1752 55.2811 27.0366 56.7168 26.9814C58.6384 26.9151 59.1906 25.0487 59.1575 24.0879C59.0802 21.835 56.6947 20.4103 53.5472 20.5097V20.4766Z" fill="white"/>
</g>
<defs>
<clipPath id="clip0_10220_28178">
<rect width="62" height="62" fill="white" transform="translate(9 9)"/>
</clipPath>
</defs>
</svg>
