<svg width="80" height="80" viewBox="0 0 80 80" fill="none" xmlns="http://www.w3.org/2000/svg">
<path d="M45.9226 26.4447C44.4777 27.1672 43.8516 28.5158 43.8516 32.1762C43.8516 32.1762 44.574 31.4538 45.73 31.0203C46.5728 30.7072 47.1749 30.2978 47.6084 29.9848C48.8606 29.0456 49.0533 27.9137 49.0533 25.939C49.0292 25.939 47.0545 25.8186 45.9226 26.4447Z" fill="#FBBD71"/>
<path d="M37.0827 27.2857C35.8305 28.3212 35.5174 30.1033 35.5174 30.1033L31.4716 45.6121L28.1483 32.9209C27.8352 31.5723 27.2091 29.9106 26.2699 28.7547C25.1139 27.2857 22.7057 27.1893 22.4167 27.1893C22.2 27.1893 19.8158 27.2857 18.5636 28.7547C17.6244 29.9106 16.9982 31.5723 16.6852 32.9209L13.5545 45.6121L9.5087 30.1033C9.5087 30.1033 9.19563 28.4416 7.94336 27.2857C5.96862 25.5036 3.05469 25.9371 3.05469 25.9371L10.761 54.956C10.761 54.956 13.2655 55.1727 14.5178 54.5466C16.1794 53.7037 17.0223 53.1017 17.9615 49.1281C18.9007 45.5881 21.4053 35.2809 21.5979 34.5585C21.6942 34.2454 21.911 33.3062 22.5371 33.3062C23.1633 33.3062 23.38 34.1491 23.4763 34.5585C23.6931 35.2809 26.1735 45.5881 27.1127 49.1281C28.1483 53.0776 28.8707 53.7037 30.5565 54.5466C31.8087 55.1727 34.3133 54.956 34.3133 54.956L41.9714 25.9371C41.9714 25.9371 39.0575 25.5277 37.0827 27.2857Z" fill="black"/>
<path d="M49.0299 30.6094C49.0299 30.6094 48.5001 31.3318 47.4645 31.958C46.7421 32.3674 46.1159 32.5841 45.3935 32.9935C44.1412 33.6196 43.8281 34.2458 43.8281 35.185V35.498V37.0634V37.3765V54.8601C43.8281 54.8601 45.8029 55.0768 47.0551 54.4507C48.7168 53.6078 49.0299 52.789 49.0299 49.2489V31.7653V30.6094Z" fill="black"/>
<path d="M68.1798 40.5005L77.9571 26.0272C77.9571 26.0272 73.9114 25.3047 71.8162 27.1831C70.4676 28.3391 69.119 30.5065 69.119 30.5065L65.5789 35.7082C65.3622 36.0213 65.1695 36.238 64.8565 36.238C64.5434 36.238 64.2303 35.9249 64.134 35.7082L60.5939 30.5065C60.5939 30.5065 59.149 28.4354 57.8967 27.1831C55.8257 25.3047 51.7558 26.0272 51.7558 26.0272L61.2201 40.4765L51.5391 54.9257C51.5391 54.9257 55.8016 55.4555 57.8967 53.5771C59.2453 52.4212 60.4976 50.4465 60.4976 50.4465L64.0377 45.2447C64.2544 44.9317 64.4471 44.7149 64.7601 44.7149C65.0732 44.7149 65.3863 45.028 65.4826 45.2447L69.0227 50.4465C69.0227 50.4465 70.3713 52.4212 71.6236 53.5771C73.6946 55.4555 77.8608 54.9257 77.8608 54.9257L68.1798 40.5005Z" fill="black"/>
</svg>
